<svg width="434" height="141" viewBox="0 0 434 141" fill="none" xmlns="http://www.w3.org/2000/svg">
<path d="M165.822 97.1108V39.7537H175.654L203.268 81.2147V39.7537H213.1V97.1108H203.268L175.654 55.7317V97.1108H165.822ZM237.09 98.0941C232.993 98.0941 229.388 97.2201 226.274 95.4721C223.16 93.6694 220.729 91.1566 218.981 87.9337C217.233 84.7108 216.359 80.9962 216.359 76.79C216.359 72.4199 217.206 68.5961 218.899 65.3186C220.648 62.041 223.078 59.4736 226.192 57.6163C229.36 55.759 233.02 54.8304 237.172 54.8304C241.214 54.8304 244.738 55.7317 247.742 57.5344C250.746 59.337 253.068 61.7679 254.707 64.8269C256.346 67.8314 257.165 71.2182 257.165 74.9874C257.165 75.5336 257.165 76.1345 257.165 76.79C257.165 77.4455 257.11 78.1283 257.001 78.8385H223.406V72.5292H247.25C247.141 69.5248 246.13 67.1759 244.219 65.4825C242.307 63.7344 239.93 62.8604 237.09 62.8604C235.069 62.8604 233.211 63.3247 231.518 64.2534C229.825 65.182 228.486 66.575 227.503 68.4323C226.52 70.2349 226.028 72.5292 226.028 75.3151V77.6913C226.028 80.2588 226.492 82.4711 227.421 84.3284C228.404 86.1857 229.715 87.6059 231.354 88.5892C233.048 89.5178 234.932 89.9822 237.008 89.9822C239.302 89.9822 241.187 89.4905 242.662 88.5073C244.191 87.524 245.311 86.213 246.021 84.5742H256.018C255.253 87.1416 253.997 89.4632 252.249 91.539C250.501 93.5602 248.343 95.1716 245.775 96.3734C243.208 97.5205 240.313 98.0941 237.09 98.0941ZM275.011 98.0941C271.679 98.0941 268.811 97.4386 266.407 96.1276C264.058 94.7619 262.256 92.7408 260.999 90.0641C259.743 87.3328 259.115 83.9733 259.115 79.9856V55.8137H268.947V79.0024C268.947 82.553 269.685 85.257 271.16 87.1143C272.689 88.917 274.984 89.8183 278.043 89.8183C280.009 89.8183 281.757 89.354 283.287 88.4253C284.871 87.4967 286.1 86.1584 286.974 84.4103C287.903 82.6077 288.367 80.4226 288.367 77.8552V55.8137H298.2V97.1108H289.514L288.777 90.228C287.52 92.6315 285.69 94.5434 283.287 95.9637C280.938 97.384 278.179 98.0941 275.011 98.0941ZM302.585 97.1108V55.8137H311.352L312.253 63.5159C313.237 61.7133 314.466 60.1837 315.941 58.9273C317.416 57.6163 319.136 56.6057 321.103 55.8956C323.124 55.1855 325.336 54.8304 327.74 54.8304V65.2366H324.298C322.66 65.2366 321.103 65.4551 319.628 65.8921C318.153 66.2745 316.869 66.93 315.777 67.8587C314.739 68.7327 313.919 69.9618 313.319 71.5459C312.718 73.0755 312.417 75.0147 312.417 77.3636V97.1108H302.585ZM346.972 98.0941C343.039 98.0941 339.489 97.1928 336.32 95.3901C333.207 93.5328 330.749 90.9927 328.946 87.7698C327.198 84.4923 326.324 80.7504 326.324 76.5442C326.324 72.2288 327.225 68.4596 329.028 65.2366C330.83 61.9591 333.289 59.419 336.402 57.6163C339.571 55.759 343.121 54.8304 347.054 54.8304C350.987 54.8304 354.511 55.759 357.624 57.6163C360.793 59.419 363.251 61.9318 364.999 65.1547C366.802 68.3776 367.703 72.1468 367.703 76.4623C367.703 80.7777 366.802 84.5469 364.999 87.7698C363.196 90.9927 360.711 93.5328 357.543 95.3901C354.429 97.1928 350.905 98.0941 346.972 98.0941ZM346.972 89.6544C348.939 89.6544 350.714 89.1628 352.298 88.1795C353.937 87.1962 355.248 85.7213 356.231 83.7548C357.215 81.7883 357.706 79.3574 357.706 76.4623C357.706 73.5671 357.215 71.1635 356.231 69.2516C355.303 67.2851 354.019 65.8102 352.38 64.8269C350.796 63.8437 349.021 63.352 347.054 63.352C345.142 63.352 343.367 63.8437 341.728 64.8269C340.09 65.8102 338.779 67.2851 337.795 69.2516C336.812 71.1635 336.32 73.5671 336.32 76.4623C336.32 79.3574 336.812 81.7883 337.795 83.7548C338.779 85.7213 340.062 87.1962 341.646 88.1795C343.285 89.1628 345.061 89.6544 346.972 89.6544ZM371.183 97.1108V55.8137H381.015V97.1108H371.183ZM376.099 49.2586C374.296 49.2586 372.794 48.7123 371.592 47.6198C370.445 46.4726 369.872 45.0797 369.872 43.4409C369.872 41.7475 370.445 40.3819 371.592 39.344C372.794 38.2515 374.296 37.7052 376.099 37.7052C377.902 37.7052 379.377 38.2515 380.524 39.344C381.726 40.3819 382.326 41.7475 382.326 43.4409C382.326 45.0797 381.726 46.4726 380.524 47.6198C379.377 48.7123 377.902 49.2586 376.099 49.2586ZM404.177 98.0941C400.353 98.0941 396.939 97.1655 393.935 95.3082C390.93 93.4509 388.582 90.8835 386.888 87.6059C385.249 84.3284 384.43 80.6138 384.43 76.4623C384.43 72.3107 385.277 68.6234 386.97 65.4005C388.663 62.123 391.012 59.5555 394.017 57.6983C397.076 55.7864 400.517 54.8304 404.341 54.8304C407.455 54.8304 410.159 55.4313 412.453 56.6331C414.802 57.7802 416.659 59.419 418.025 61.5494V38.1149H427.858V97.1108H419.008L418.025 91.1293C417.151 92.3311 416.086 93.4782 414.829 94.5707C413.573 95.6086 412.071 96.4553 410.323 97.1108C408.575 97.7664 406.526 98.0941 404.177 98.0941ZM406.226 89.5725C408.575 89.5725 410.65 89.0262 412.453 87.9337C414.256 86.7865 415.649 85.2297 416.632 83.2632C417.615 81.2966 418.107 79.0297 418.107 76.4623C418.107 73.8948 417.615 71.6279 416.632 69.6613C415.649 67.6948 414.256 66.1653 412.453 65.0728C410.65 63.9802 408.575 63.434 406.226 63.434C403.986 63.434 401.965 63.9802 400.162 65.0728C398.36 66.1653 396.939 67.6948 395.901 69.6613C394.918 71.6279 394.427 73.8948 394.427 76.4623C394.427 79.0297 394.918 81.2966 395.901 83.2632C396.939 85.2297 398.36 86.7865 400.162 87.9337C401.965 89.0262 403.986 89.5725 406.226 89.5725Z" fill="black"></path>
<path d="M141.597 34.6943L141.103 104.905L141.101 105.212L140.826 105.349L118.163 116.681L117.844 116.84L117.59 116.591L95.0245 94.5039L94.7892 128.31L94.7863 128.628L94.4962 128.761L71.7892 139.108L71.0822 139.431V69.6104L71.3585 69.4717L94.0656 58.1406L94.382 57.9824L94.6368 58.2285L117.184 80.0635L116.946 46.2725L116.943 45.958L117.226 45.8203L140.877 34.2412L141.603 33.8857L141.597 34.6943Z" fill="#FEEF24" stroke="black"></path>
<path d="M1.2218 34.9414L25.2462 46.5908L25.3986 46.6641L25.4747 46.8154L47.296 90.249L47.4747 58.7695L47.4786 57.9785L48.1925 58.3223L70.5568 69.127L70.839 69.2637L70.84 69.5762L70.9659 138.538L70.9679 139.33L70.2531 138.991L47.2179 128.097L47.0577 128.021L46.9816 127.862L25.545 83.5L25.4122 116.392L25.4093 117.194L24.6896 116.837L0.953247 105.037L0.67688 104.899L0.675903 104.591L0.504028 35.3926L0.502075 34.5928L1.2218 34.9414Z" fill="#FEEF24" stroke="black"></path>
<path d="M70.849 46.3389L92.8334 57.2295L93.7386 57.6777L92.8334 58.126L70.8969 68.9824L70.6742 69.0918L70.4525 68.9824L48.4681 58.0918L47.5629 57.6436L48.4681 57.1953L70.4056 46.3389L70.6273 46.2295L70.849 46.3389Z" fill="#FEEF24" stroke="black"></path>
<path d="M117.529 23.0396L139.781 33.7466L140.715 34.1958L139.782 34.647L116.695 45.8091L116.477 45.9146L116.259 45.8091L94.347 35.188L93.4281 34.7427L94.3431 34.2896L117.09 23.0415L117.309 22.9331L117.529 23.0396Z" fill="#FEEF24" stroke="black"></path>
<path d="M24.8792 23.0332L47.3752 34.3271L48.2668 34.7744L25.5657 46.125L25.3459 46.2354L25.1252 46.1279L2.14185 35.0273L1.22388 34.584L2.13696 34.1289L24.4319 23.0332L24.6555 22.9219L24.8792 23.0332Z" fill="#FEEF24" stroke="black"></path>
<path d="M71.9132 0.660645L94.0157 11.3911L94.9445 11.8413L94.0157 12.2905L71.381 23.229L71.1613 23.3354L70.9415 23.2271L49.0294 12.3794L48.1124 11.9253L49.0343 11.481L71.4786 0.660645L71.6964 0.555176L71.9132 0.660645Z" fill="#FEEF24" stroke="black"></path>
<path d="M48.6987 12.4224L71.0884 23.5054L71.2368 23.5786L71.312 23.7251L86.106 52.5269L86.8071 53.8921L85.437 53.2017L70.604 45.7339L58.5737 51.9995L58.1411 52.2241L57.9048 51.7974L48.1138 34.0952L48.0522 33.9829L48.0513 33.855L47.9771 12.8726L47.9741 12.064L48.6987 12.4224Z" fill="#FEEF24" stroke="black"></path>
<path d="M48.2262 35.4961L57.3092 51.5645L57.5641 52.0166L57.1031 52.2549L47.4762 57.2393V87.0918L46.5309 87.3193L25.9225 46.9141L25.6949 46.4688L26.1403 46.2422L47.5641 35.2969L47.9908 35.0791L48.2262 35.4961Z" fill="#FEEF24" stroke="black"></path>
<path d="M95.0927 12.3765L104.166 28.7192L104.418 29.1724L103.955 29.4077L93.3905 34.7808L93.7772 56.5913L93.7919 57.4331L93.0458 57.0435L86.4891 53.6265L86.3456 53.5513L86.2733 53.4067L71.4901 23.8921L71.2635 23.4399L71.7186 23.2192L94.4364 12.1704L94.8632 11.9624L95.0927 12.3765Z" fill="#FEEF24" stroke="black"></path>
<path d="M94.0485 35.3125L116.353 46.0645L116.631 46.1992L116.635 46.5098L117.005 78.3594L117.018 79.5459L116.16 78.7275L93.8912 57.4912L93.7408 57.3477L93.7369 57.1387L93.3317 35.7725L93.316 34.959L94.0485 35.3125Z" fill="#FEEF24" stroke="black"></path>
<path d="M38.2192 109.485L38.4312 109.921L38.0024 110.146L26.1431 116.372L25.4106 116.757V115.93L25.4263 85.3018L26.3765 85.083L38.2192 109.485Z" fill="#FEEF24" stroke="black"></path>
<path d="M95.6735 95.0088L118.346 116.246L117.783 117.06L95.0289 105.826L94.7477 105.687L94.7506 105.373L94.8317 95.3701L94.8414 94.2295L95.6735 95.0088Z" fill="#FEEF24" stroke="black"></path>
</svg>