<svg width="143" height="141" viewBox="0 0 143 141" fill="none" xmlns="http://www.w3.org/2000/svg">
<path d="M141.597 34.6943L141.103 104.905L141.101 105.212L140.826 105.349L118.163 116.681L117.844 116.84L117.59 116.591L95.0245 94.5039L94.7892 128.31L94.7863 128.628L94.4962 128.761L71.7892 139.108L71.0822 139.431V69.6104L71.3585 69.4717L94.0656 58.1406L94.382 57.9824L94.6368 58.2285L117.184 80.0635L116.946 46.2725L116.943 45.958L117.226 45.8203L140.877 34.2412L141.603 33.8857L141.597 34.6943Z" fill="#FEEF24" stroke="black"></path>
<path d="M1.2218 34.9414L25.2462 46.5908L25.3986 46.6641L25.4747 46.8154L47.296 90.249L47.4747 58.7695L47.4786 57.9785L48.1925 58.3223L70.5568 69.127L70.839 69.2637L70.84 69.5762L70.9659 138.538L70.9679 139.33L70.2531 138.991L47.2179 128.097L47.0577 128.021L46.9816 127.862L25.545 83.5L25.4122 116.392L25.4093 117.194L24.6896 116.837L0.953247 105.037L0.67688 104.899L0.675903 104.591L0.504028 35.3926L0.502075 34.5928L1.2218 34.9414Z" fill="#FEEF24" stroke="black"></path>
<path d="M70.849 46.3389L92.8334 57.2295L93.7386 57.6777L92.8334 58.126L70.8969 68.9824L70.6742 69.0918L70.4525 68.9824L48.4681 58.0918L47.5629 57.6436L48.4681 57.1953L70.4056 46.3389L70.6273 46.2295L70.849 46.3389Z" fill="#FEEF24" stroke="black"></path>
<path d="M117.529 23.0396L139.781 33.7466L140.715 34.1958L139.782 34.647L116.695 45.8091L116.477 45.9146L116.259 45.8091L94.347 35.188L93.4281 34.7427L94.3431 34.2896L117.09 23.0415L117.309 22.9331L117.529 23.0396Z" fill="#FEEF24" stroke="black"></path>
<path d="M24.8792 23.0334L47.3752 34.3274L48.2668 34.7747L25.5657 46.1252L25.3459 46.2356L25.1252 46.1282L2.14185 35.0276L1.22388 34.5842L2.13696 34.1292L24.4319 23.0334L24.6555 22.9221L24.8792 23.0334Z" fill="#FEEF24" stroke="black"></path>
<path d="M71.9132 0.660645L94.0157 11.3911L94.9445 11.8413L94.0157 12.2905L71.381 23.229L71.1613 23.3354L70.9415 23.2271L49.0294 12.3794L48.1124 11.9253L49.0343 11.481L71.4786 0.660645L71.6964 0.555176L71.9132 0.660645Z" fill="#FEEF24" stroke="black"></path>
<path d="M48.6987 12.4226L71.0884 23.5056L71.2368 23.5789L71.312 23.7253L86.106 52.5271L86.8071 53.8923L85.437 53.2019L70.604 45.7341L58.5737 51.9998L58.1411 52.2244L57.9048 51.7976L48.1138 34.0955L48.0522 33.9832L48.0513 33.8552L47.9771 12.8728L47.9741 12.0642L48.6987 12.4226Z" fill="#FEEF24" stroke="black"></path>
<path d="M48.2262 35.4963L57.3092 51.5647L57.5641 52.0168L57.1031 52.2551L47.4762 57.2395V87.092L46.5309 87.3196L25.9225 46.9143L25.6949 46.469L26.1403 46.2424L47.5641 35.2971L47.9908 35.0793L48.2262 35.4963Z" fill="#FEEF24" stroke="black"></path>
<path d="M95.0927 12.3765L104.166 28.7192L104.418 29.1724L103.955 29.4077L93.3905 34.7808L93.7772 56.5913L93.7919 57.4331L93.0458 57.0435L86.4891 53.6265L86.3456 53.5513L86.2733 53.4067L71.4901 23.8921L71.2635 23.4399L71.7186 23.2192L94.4364 12.1704L94.8632 11.9624L95.0927 12.3765Z" fill="#FEEF24" stroke="black"></path>
<path d="M94.0485 35.3127L116.353 46.0647L116.631 46.1995L116.635 46.51L117.005 78.3596L117.018 79.5461L116.16 78.7278L93.8912 57.4915L93.7408 57.3479L93.7369 57.1389L93.3317 35.7727L93.316 34.9592L94.0485 35.3127Z" fill="#FEEF24" stroke="black"></path>
<path d="M38.2192 109.486L38.4312 109.921L38.0024 110.147L26.1431 116.372L25.4106 116.757V115.93L25.4263 85.302L26.3765 85.0833L38.2192 109.486Z" fill="#FEEF24" stroke="black"></path>
<path d="M95.6735 95.0085L118.346 116.246L117.783 117.059L95.0289 105.826L94.7477 105.686L94.7506 105.373L94.8317 95.3699L94.8414 94.2292L95.6735 95.0085Z" fill="#FEEF24" stroke="black"></path>
</svg>