<svg width="429" height="141" viewBox="0 0 429 141" fill="none" xmlns="http://www.w3.org/2000/svg">
<path d="M160.819 100.077V42.72H170.652L198.265 84.181V42.72H208.098V100.077H198.265L170.652 58.698V100.077H160.819ZM232.087 101.06C227.99 101.06 224.385 100.186 221.271 98.4384C218.158 96.6357 215.727 94.1229 213.979 90.9C212.231 87.6771 211.357 83.9625 211.357 79.7563C211.357 75.3862 212.204 71.5624 213.897 68.2849C215.645 65.0073 218.076 62.4399 221.19 60.5826C224.358 58.7254 228.018 57.7967 232.169 57.7967C236.212 57.7967 239.735 58.698 242.739 60.5007C245.744 62.3034 248.065 64.7342 249.704 67.7933C251.343 70.7977 252.162 74.1845 252.162 77.9537C252.162 78.4999 252.162 79.1008 252.162 79.7563C252.162 80.4118 252.108 81.0947 251.999 81.8048H218.404V75.4955H242.248C242.139 72.4911 241.128 70.1422 239.216 68.4488C237.304 66.7007 234.928 65.8267 232.087 65.8267C230.066 65.8267 228.209 66.291 226.516 67.2197C224.822 68.1483 223.484 69.5413 222.501 71.3986C221.517 73.2012 221.026 75.4955 221.026 78.2814V80.6576C221.026 83.2251 221.49 85.4374 222.419 87.2947C223.402 89.152 224.713 90.5722 226.352 91.5555C228.045 92.4842 229.93 92.9485 232.005 92.9485C234.3 92.9485 236.184 92.4568 237.659 91.4736C239.189 90.4903 240.309 89.1793 241.019 87.5405H251.015C250.25 90.1079 248.994 92.4295 247.246 94.5053C245.498 96.5265 243.34 98.1379 240.773 99.3397C238.205 100.487 235.31 101.06 232.087 101.06ZM270.008 101.06C266.676 101.06 263.808 100.405 261.405 99.0939C259.056 97.7282 257.253 95.7071 255.997 93.0304C254.74 90.2991 254.112 86.9396 254.112 82.9519V58.78H263.945V81.9687C263.945 85.5194 264.682 88.2233 266.157 90.0806C267.687 91.8833 269.981 92.7846 273.04 92.7846C275.007 92.7846 276.755 92.3203 278.284 91.3916C279.868 90.463 281.097 89.1247 281.971 87.3766C282.9 85.574 283.364 83.3889 283.364 80.8215V58.78H293.197V100.077H284.512L283.774 93.1943C282.518 95.5978 280.688 97.5097 278.284 98.93C275.935 100.35 273.177 101.06 270.008 101.06ZM297.582 100.077V58.78H306.35L307.251 66.4822C308.234 64.6796 309.463 63.1501 310.938 61.8937C312.413 60.5826 314.134 59.5721 316.1 58.8619C318.121 58.1518 320.334 57.7967 322.737 57.7967V68.2029H319.296C317.657 68.2029 316.1 68.4214 314.625 68.8585C313.15 69.2408 311.867 69.8963 310.774 70.825C309.736 71.699 308.917 72.9281 308.316 74.5122C307.715 76.0418 307.415 77.981 307.415 80.3299V100.077H297.582ZM341.97 101.06C338.037 101.06 334.486 100.159 331.318 98.3564C328.204 96.4992 325.746 93.959 323.943 90.7361C322.195 87.4586 321.321 83.7167 321.321 79.5105C321.321 75.1951 322.223 71.4259 324.025 68.2029C325.828 64.9254 328.286 62.3853 331.4 60.5826C334.568 58.7254 338.119 57.7967 342.052 57.7967C345.985 57.7967 349.508 58.7254 352.622 60.5826C355.79 62.3853 358.248 64.8981 359.996 68.121C361.799 71.3439 362.7 75.1131 362.7 79.4286C362.7 83.744 361.799 87.5132 359.996 90.7361C358.194 93.959 355.708 96.4992 352.54 98.3564C349.426 100.159 345.903 101.06 341.97 101.06ZM341.97 92.6207C343.936 92.6207 345.712 92.1291 347.296 91.1458C348.935 90.1626 350.246 88.6877 351.229 86.7211C352.212 84.7546 352.704 82.3237 352.704 79.4286C352.704 76.5334 352.212 74.1299 351.229 72.2179C350.3 70.2514 349.017 68.7765 347.378 67.7933C345.794 66.81 344.018 66.3184 342.052 66.3184C340.14 66.3184 338.365 66.81 336.726 67.7933C335.087 68.7765 333.776 70.2514 332.793 72.2179C331.809 74.1299 331.318 76.5334 331.318 79.4286C331.318 82.3237 331.809 84.7546 332.793 86.7211C333.776 88.6877 335.06 90.1626 336.644 91.1458C338.283 92.1291 340.058 92.6207 341.97 92.6207ZM366.18 100.077V58.78H376.013V100.077H366.18ZM371.097 52.2249C369.294 52.2249 367.792 51.6786 366.59 50.5861C365.443 49.439 364.869 48.046 364.869 46.4072C364.869 44.7138 365.443 43.3482 366.59 42.3103C367.792 41.2178 369.294 40.6715 371.097 40.6715C372.899 40.6715 374.374 41.2178 375.521 42.3103C376.723 43.3482 377.324 44.7138 377.324 46.4072C377.324 48.046 376.723 49.439 375.521 50.5861C374.374 51.6786 372.899 52.2249 371.097 52.2249ZM399.175 101.06C395.351 101.06 391.937 100.132 388.932 98.2745C385.928 96.4172 383.579 93.8498 381.886 90.5722C380.247 87.2947 379.427 83.5801 379.427 79.4286C379.427 75.277 380.274 71.5898 381.968 68.3668C383.661 65.0893 386.01 62.5219 389.014 60.6646C392.073 58.7527 395.515 57.7967 399.339 57.7967C402.452 57.7967 405.156 58.3976 407.451 59.5994C409.799 60.7465 411.657 62.3853 413.022 64.5157V41.0812H422.855V100.077H414.006L413.022 94.0956C412.148 95.2974 411.083 96.4445 409.827 97.537C408.57 98.5749 407.068 99.4216 405.32 100.077C403.572 100.733 401.524 101.06 399.175 101.06ZM401.223 92.5388C403.572 92.5388 405.648 91.9925 407.451 90.9C409.253 89.7529 410.646 88.196 411.629 86.2295C412.613 84.263 413.104 81.996 413.104 79.4286C413.104 76.8611 412.613 74.5942 411.629 72.6276C410.646 70.6611 409.253 69.1316 407.451 68.0391C405.648 66.9466 403.572 66.4003 401.223 66.4003C398.984 66.4003 396.962 66.9466 395.16 68.0391C393.357 69.1316 391.937 70.6611 390.899 72.6276C389.916 74.5942 389.424 76.8611 389.424 79.4286C389.424 81.996 389.916 84.263 390.899 86.2295C391.937 88.196 393.357 89.7529 395.16 90.9C396.962 91.9925 398.984 92.5388 401.223 92.5388Z" fill="black"></path>
<path d="M71.8638 0.661133L94.6255 11.6885L94.7691 11.7578L94.8463 11.8975L104.402 29.2754L117.011 23.0391L117.228 22.9316L117.446 23.0352L141.214 34.2344L141.503 34.3701L141.502 34.6895L141.008 104.893L141.006 105.198L140.733 105.336L117.512 117.032L117.288 117.146L117.063 117.033L94.7681 105.848L94.7252 128.291L94.7242 128.609L94.4361 128.743L71.2125 139.564L70.9966 139.665L70.7828 139.561L47.1793 128.079L47.023 128.003L46.9478 127.847L38.273 109.851L25.1285 116.817L24.9019 116.938L24.6714 116.823L0.950745 105.024L0.674377 104.887L0.673401 104.578L0.501526 35.3887L0.500549 35.0801L0.776917 34.9414L24.4117 23.0312L24.6353 22.9189L24.8599 23.0303L47.9673 34.5625L47.9048 12.4072L47.9039 12.0928L48.1861 11.9561L71.4273 0.661133L71.6461 0.555664L71.8638 0.661133Z" fill="black" stroke="black"></path>
<path d="M71.4872 138.654V69.92L94.1939 58.5881L117.598 81.2519L117.351 46.2695L141.002 34.6909L140.508 104.902L117.844 116.234L94.4384 93.3238L94.1939 128.306L71.4872 138.654Z" fill="white"></path>
<path d="M1.08112 104.59L0.909119 35.3921L24.9331 47.0408L47.6896 92.3366L47.8797 58.7733L70.2447 69.5778L70.3714 138.54L47.3365 127.645L24.9602 81.3352L24.8176 116.39L1.08112 104.59Z" fill="white"></path>
<path d="M70.5797 68.5347L48.5949 57.6442L70.5321 46.7876L92.5169 57.6781L70.5797 68.5347Z" fill="white"></path>
<path d="M116.382 45.3596L139.469 34.1975L117.218 23.4902L94.47 34.7384L116.382 45.3596Z" fill="white"></path>
<path d="M25.2476 45.6785L2.26477 34.5775L24.5596 23.481L47.0559 34.7744L25.2476 45.6785Z" fill="white"></path>
<path d="M71.0685 22.7793L93.7028 11.8412L71.6004 1.11133L49.1562 11.9317L71.0685 22.7793Z" fill="white"></path>
<path d="M48.3821 12.8711L70.772 23.954L85.5666 52.7556L70.505 45.1738L58.2475 51.5561L48.4568 33.8533L48.3821 12.8711Z" fill="white"></path>
<path d="M26.2729 46.6875L47.6964 35.7427L56.7786 51.8114L46.8816 56.9353V87.0925L26.2729 46.6875Z" fill="white"></path>
<path d="M71.8425 23.6691L94.5606 12.6201L103.634 28.9627L92.7908 34.4782L93.1823 56.601L86.6258 53.1836L71.8425 23.6691Z" fill="white"></path>
<path d="M94.1419 57.1301L93.7368 35.7632L116.041 46.5157L116.41 78.3658L94.1419 57.1301Z" fill="white"></path>
<path d="M25.8157 115.93L37.6749 109.704L25.8315 85.3022L25.8157 115.93Z" fill="white"></path>
<path d="M95.1558 105.378L95.2373 95.3745L116.453 116.345L95.1558 105.378Z" fill="white"></path>
</svg>