<svg xmlns="http://www.w3.org/2000/svg" fill="none" viewBox="0 0 303 81" height="81" width="303">
<path fill="#4D0101" d="M-0.000694802 79.4846C1.57451 79.4846 2.86618 79.264 3.87431 78.823C4.88244 78.3819 5.63854 77.7203 6.1426 76.8382C6.64667 75.9561 6.99321 74.8535 7.18224 73.5303C7.37126 72.1441 7.46578 70.5374 7.46578 68.7102V10.018C7.46578 8.63185 7.40277 7.40319 7.27675 6.33205C7.15074 5.19791 6.8672 4.25278 6.42614 3.49669C5.98508 2.67758 5.355 2.0475 4.5359 1.60644C3.71679 1.16538 2.61415 0.944855 1.22796 0.944855V-0.000266646H64.0786V0.283267L67.2921 17.6735L66.536 17.9571C64.2047 14.7436 61.9364 12.0658 59.7311 9.92352C57.5258 7.71823 55.1 5.95401 52.4536 4.63083C49.8703 3.30766 46.9089 2.39404 43.5695 1.88998C40.293 1.3229 36.4495 1.03937 32.039 1.03937H19.5633V34.2132H23.4384C27.7229 34.2132 31.2829 33.9927 34.1182 33.5516C36.9536 33.1105 39.2849 32.4174 41.1121 31.4723C43.0024 30.4642 44.4831 29.141 45.5542 27.5028C46.6254 25.8016 47.539 23.7223 48.2951 21.265H48.8622V48.1065H48.2951C47.1609 45.7752 46.0268 43.7904 44.8926 42.1522C43.7585 40.514 42.3093 39.1908 40.5451 38.1827C38.8439 37.1116 36.6386 36.3555 33.9292 35.9144C31.2199 35.4103 27.7229 35.1583 23.4384 35.1583H19.5633V79.3901H29.7707C34.0552 79.3901 37.9302 79.138 41.3957 78.634C44.9241 78.0669 48.1376 77.1218 51.0359 75.7986C53.9973 74.4124 56.7382 72.5537 59.2585 70.2224C61.7788 67.8911 64.2362 64.9612 66.6305 61.4327L67.2921 61.6217L64.0786 80.4297H-0.000694802V79.4846ZM71.105 16.2558C73.5624 16.3819 75.7676 16.5079 77.7209 16.6339C79.6741 16.6969 81.5644 16.7284 83.3916 16.7284C85.0929 16.7284 86.8571 16.6969 88.6843 16.6339C90.5746 16.5079 92.7168 16.3819 95.1112 16.2558C99.0807 15.8778 102.074 16.6339 104.09 18.5241C106.169 20.4144 107.209 23.3128 107.209 27.2193C107.209 29.4246 107.303 31.4723 107.492 33.3626C107.681 35.2528 107.996 36.891 108.437 38.2772C108.878 39.6634 109.477 40.766 110.233 41.5851C111.052 42.3412 112.029 42.7193 113.163 42.7193C114.234 42.7193 115.494 42.3412 116.943 41.5851C117.889 39.1908 118.834 36.828 119.779 34.4967C120.724 32.1024 121.638 29.8026 122.52 27.5973C123.78 24.3839 123.811 21.9266 122.614 20.2254C121.48 18.4611 118.834 17.3585 114.675 16.9174V16.2558C116.187 16.3819 117.605 16.4764 118.928 16.5394C120.314 16.6024 121.638 16.6339 122.898 16.6339C124.41 16.6339 125.891 16.6024 127.34 16.5394C128.852 16.4764 130.364 16.3819 131.876 16.2558V16.9174C130.049 17.9886 128.505 19.3117 127.245 20.8869C126.048 22.4622 124.946 24.4154 123.937 26.7467C122.929 29.33 121.827 32.0709 120.629 34.9693C119.495 37.8677 118.33 40.829 117.133 43.8534C115.935 46.8148 114.738 49.8077 113.541 52.8321C112.407 55.7935 111.304 58.6289 110.233 61.3382C107.713 67.702 105.192 74.0659 102.672 80.4297H101.916C101.79 80.1146 101.349 79.075 100.593 77.3108C99.8368 75.5466 98.8601 73.2783 97.663 70.5059C96.4658 67.7335 95.0797 64.5516 93.5044 60.9602C91.9922 57.3687 90.3855 53.5882 88.6843 49.6187C86.9831 45.6492 85.2504 41.6166 83.4861 37.5211C81.7219 33.4256 80.0207 29.4561 78.3825 25.6126C76.9963 22.6512 75.7361 20.5719 74.602 19.3747C73.4678 18.1776 72.2707 17.39 71.0105 17.0119L71.105 16.2558ZM95.5837 17.2955C94.4496 17.4845 93.536 17.8941 92.8429 18.5241C92.2128 19.0912 91.7717 19.8473 91.5197 20.7924C91.2677 21.6745 91.2046 22.6827 91.3307 23.8168C91.4567 24.888 91.7402 25.9906 92.1813 27.1248C93.8195 31.0313 95.5837 35.1583 97.474 39.5059C99.3642 43.7904 101.097 47.7599 102.672 51.4144C104.499 55.699 106.295 59.9205 108.059 64.0791C108.878 62.1258 109.729 60.015 110.611 57.7467C111.367 55.7935 112.249 53.5567 113.258 51.0364C114.266 48.516 115.337 45.8382 116.471 43.0028C115.274 43.5069 114.171 43.7589 113.163 43.7589C111.399 43.7589 110.044 43.1288 109.099 41.8687C108.154 40.5455 107.461 39.0018 107.02 37.2376C106.579 35.4733 106.327 33.6461 106.264 31.7559C106.201 29.8656 106.169 28.3534 106.169 27.2193C106.169 20.0363 102.641 16.7284 95.5837 17.2955ZM147.472 80.4297C144.196 80.4927 141.14 80.1777 138.305 79.4846C135.532 78.7285 133.138 77.5943 131.122 76.0821C129.106 74.5699 127.499 72.6482 126.302 70.3169C125.168 67.9226 124.6 65.0872 124.6 61.8108C124.6 58.5973 125.294 55.888 126.68 53.6827C128.129 51.4774 129.956 49.6502 132.161 48.201C134.43 46.6888 136.95 45.5231 139.722 44.704C142.495 43.8219 145.236 43.1603 147.945 42.7193H148.04C145.141 42.1522 142.778 41.1126 140.951 39.6004C139.124 38.0882 137.801 36.3555 136.982 34.4022C136.225 32.3859 135.973 30.3067 136.225 28.1644C136.541 26.0221 137.328 24.0689 138.588 22.3046C139.911 20.5404 141.739 19.0912 144.07 17.9571C146.401 16.7599 149.205 16.1613 152.482 16.1613C156.262 16.1613 159.854 16.5079 163.256 17.201C166.658 17.8941 169.651 19.0282 172.235 20.6034C174.881 22.1156 177.055 24.1634 178.756 26.7467C180.457 29.267 181.528 32.3544 181.969 36.0089C179.953 36.702 177.937 37.3006 175.921 37.8046C173.967 38.2457 172.014 38.6553 170.061 39.0333C169.872 35.8829 169.431 32.9845 168.738 30.3382C168.108 27.6918 167.099 25.4235 165.713 23.5333C164.327 21.58 162.531 20.0678 160.326 18.9967C158.184 17.8626 155.506 17.264 152.293 17.201C148.512 17.264 145.393 18.1146 142.936 19.7528C140.542 21.328 138.903 23.3128 138.021 25.7071C137.391 27.3453 137.108 29.015 137.171 30.7162C137.297 32.3544 137.769 33.8981 138.588 35.3473C139.407 36.7335 140.542 37.9937 141.991 39.1278C143.503 40.199 145.33 40.9866 147.472 41.4906C149.174 41.9947 151.064 42.3412 153.143 42.5303C155.285 42.7193 157.554 42.7508 159.948 42.6248C163.161 42.4988 166.658 42.0892 170.439 41.3961C174.282 40.703 178.189 39.6949 182.158 38.3717C185.813 37.1746 189.404 35.7254 192.933 34.0242C196.461 32.3229 199.738 30.3382 202.762 28.0699C205.787 25.8016 208.496 23.1867 210.89 20.2254C213.284 17.201 215.206 13.7985 216.655 10.018V38.1827C217.096 35.0953 217.947 32.1654 219.207 29.3931C220.53 26.6207 222.326 24.2264 224.594 22.2101C226.926 20.1939 229.73 18.6502 233.006 17.579C236.345 16.4449 240.252 16.0038 244.726 16.2558L244.442 28.637C241.544 28.0069 238.677 27.6918 235.841 27.6918C233.069 27.6918 230.517 28.0384 228.186 28.7315C225.855 29.4246 223.838 30.4642 222.137 31.8504C220.436 33.2366 219.081 35.0008 218.073 37.1431C217.128 39.2223 216.655 41.7112 216.655 44.6095V70.0333C216.718 71.6715 216.813 73.0892 216.939 74.2864C217.128 75.4205 217.443 76.3657 217.884 77.1218C218.388 77.8779 219.081 78.4449 219.963 78.823C220.908 79.201 222.137 79.3901 223.649 79.3901V80.3352C221.759 80.2092 219.585 80.1146 217.128 80.0516C214.734 79.9886 212.15 79.9571 209.378 79.9571C207.488 79.9571 205.503 79.9886 203.424 80.0516C201.407 80.1146 199.391 80.2092 197.375 80.3352V79.3901C198.95 79.3901 200.179 79.201 201.061 78.823C202.006 78.3819 202.699 77.7833 203.14 77.0272C203.644 76.2081 203.959 75.2 204.085 74.0029C204.274 72.7427 204.369 71.262 204.369 69.5608V44.326C204.369 42.3727 204.337 40.6715 204.274 39.2223C204.274 37.7101 204.085 36.45 203.707 35.4418C203.392 34.4337 202.857 33.6461 202.101 33.079C201.344 32.4489 200.242 32.0709 198.793 31.9449C196.209 33.5201 193.531 34.9378 190.759 36.1979C187.987 37.3951 185.12 38.4662 182.158 39.4114C182.158 39.9154 182.158 40.4195 182.158 40.9236C182.221 41.4276 182.253 42.3727 182.253 43.7589C182.253 45.1451 182.253 47.2244 182.253 49.9967C182.253 52.7691 182.253 56.6441 182.253 61.6217C182.253 63.89 182.253 66.0953 182.253 68.2376C182.316 70.3799 182.536 72.2701 182.915 73.9083C183.293 75.5466 183.923 76.8697 184.805 77.8779C185.687 78.886 187.01 79.3901 188.774 79.3901V80.3352C185.498 80.3352 182.694 80.0831 180.363 79.5791C178.031 79.075 176.11 78.2559 174.597 77.1218C173.085 75.9246 171.951 74.3494 171.195 72.3961C170.502 70.3799 170.155 67.8596 170.155 64.8352C168.391 69.7498 165.619 73.5618 161.838 76.2711C158.058 78.9805 153.269 80.3667 147.472 80.4297ZM136.793 62.5669C136.793 67.4185 137.864 71.199 140.006 73.9083C142.148 76.6177 145.614 77.9724 150.402 77.9724C153.112 77.9724 155.664 77.5628 158.058 76.7437C160.515 75.8616 162.626 74.4754 164.39 72.5852C166.154 70.6949 167.541 68.2376 168.549 65.2132C169.62 62.1888 170.155 58.5028 170.155 54.1553V42.4357C168.958 42.6878 167.793 42.8768 166.658 43.0028C165.524 43.1288 164.39 43.2549 163.256 43.3809C161.555 43.5069 159.885 43.6014 158.247 43.6644C156.609 43.7274 155.033 43.6959 153.521 43.5699C151.316 44.074 149.205 44.767 147.189 45.6492C145.173 46.5313 143.377 47.7284 141.802 49.2406C140.29 50.6898 139.061 52.5171 138.116 54.7223C137.234 56.9276 136.793 59.5425 136.793 62.5669ZM238.126 61.8108C238.126 58.8494 238.756 56.2975 240.016 54.1553C241.276 51.95 242.978 50.0912 245.12 48.579C247.262 47.0668 249.751 45.8697 252.586 44.9876C255.422 44.0425 258.415 43.2864 261.565 42.7193C258.667 42.1522 256.272 41.1126 254.382 39.6004C252.555 38.0882 251.263 36.3555 250.507 34.4022C249.751 32.3859 249.499 30.3382 249.751 28.2589C250.066 26.1166 250.885 24.1634 252.208 22.3991C253.531 20.5719 255.327 19.0912 257.595 17.9571C259.927 16.8229 262.731 16.2558 266.007 16.2558C269.914 16.2558 273.568 16.6339 276.971 17.39C280.436 18.0831 283.492 19.2487 286.138 20.8869C288.785 22.5252 290.927 24.6989 292.565 27.4083C294.266 30.0546 295.274 33.3311 295.589 37.2376C295.715 38.3087 295.778 39.4114 295.778 40.5455C295.778 41.6166 295.778 42.7193 295.778 43.8534V61.7163C295.778 63.9845 295.778 66.1898 295.778 68.3321C295.841 70.4114 296.062 72.2701 296.44 73.9083C296.818 75.5466 297.448 76.8697 298.33 77.8779C299.212 78.886 300.536 79.3901 302.3 79.3901V80.4297C299.023 80.4297 296.22 80.1777 293.888 79.6736C291.557 79.1695 289.635 78.3504 288.123 77.2163C286.611 76.0191 285.477 74.4124 284.721 72.3961C284.027 70.3799 283.681 67.8596 283.681 64.8352C281.917 69.8128 279.144 73.6563 275.364 76.3657C271.583 79.075 266.795 80.4612 260.998 80.5242C253.5 80.6502 247.798 79.012 243.891 75.6096C240.048 72.2071 238.126 67.6075 238.126 61.8108ZM250.318 62.6614C250.318 67.45 251.389 71.2305 253.531 74.0029C255.674 76.7122 259.139 78.0669 263.928 78.0669C266.637 78.0669 269.189 77.6573 271.583 76.8382C274.041 75.9561 276.151 74.5699 277.916 72.6797C279.68 70.7894 281.066 68.3321 282.074 65.3077C283.145 62.2833 283.681 58.5658 283.681 54.1553V42.4357C281.728 42.4357 279.554 42.4673 277.16 42.5303C274.765 42.5303 272.308 42.7193 269.788 43.0973C267.33 43.4754 264.936 44.074 262.605 44.8931C260.273 45.7122 258.194 46.8778 256.367 48.39C254.54 49.9022 253.059 51.824 251.925 54.1553C250.854 56.4866 250.318 59.3219 250.318 62.6614ZM250.696 30.3382C250.759 31.7244 251.106 33.1735 251.736 34.6857C253.059 37.3951 254.981 39.3168 257.501 40.451C260.084 41.5851 262.825 42.1522 265.724 42.1522C268.37 41.8372 270.953 41.6481 273.474 41.5851C275.994 41.4591 278.451 41.3961 280.846 41.3961H283.681C283.618 37.9307 283.271 34.7487 282.641 31.8504C282.074 28.889 281.098 26.3687 279.711 24.2894C278.325 22.1471 276.498 20.4774 274.23 19.2802C272.024 18.0201 269.22 17.3585 265.818 17.2955C263.865 17.2955 261.975 17.579 260.147 18.1461C258.32 18.6502 256.713 19.4693 255.327 20.6034C253.941 21.6745 252.807 23.0292 251.925 24.6674C251.106 26.3057 250.696 28.1959 250.696 30.3382Z"></path>
</svg>